HIERARCHY
ROOT hip
{
	OFFSET 0.000000 0.000000 0.000000
	CHANNELS 6 Xposition Yposition Zposition Xrotation Zrotation Yrotation 
	JOINT abdomen
	{
		OFFSET 0.000000 3.422050 0.000000
		CHANNELS 3 Xrotation Zrotation Yrotation 
		JOINT chest
		{
			OFFSET 0.000000 8.486693 -0.684411
			CHANNELS 3 Xrotation Zrotation Yrotation 
			JOINT neck
			{
				OFFSET 0.000000 10.266162 -0.273764
				CHANNELS 3 Xrotation Zrotation Yrotation 
				JOINT head
				{
					OFFSET 0.000000 3.148285 0.000000
					CHANNELS 3 Xrotation Zrotation Yrotation 
					End Site
					{
						OFFSET 0.000000 3.148289 0.000000
					}
				}
			}
			JOINT lCollar
			{
				OFFSET 3.422053 6.707223 -0.821293
				CHANNELS 3 Yrotation Zrotation Xrotation 
				JOINT lShldr
				{
					OFFSET 3.285171 0.000000 0.000000
					CHANNELS 3 Zrotation Yrotation Xrotation 
					JOINT lForeArm
					{
						OFFSET 10.129278 0.000000 0.000000
						CHANNELS 3 Yrotation Zrotation Xrotation 
						JOINT lHand
						{
							OFFSET 8.486692 0.000000 0.000000
							CHANNELS 3 Zrotation Yrotation Xrotation 
							End Site
							{
								OFFSET 4.106464 0.000000 0.000000
							}
						}
					}
				}
			}
			JOINT rCollar
			{
				OFFSET -3.558935 6.707223 -0.821293
				CHANNELS 3 Yrotation Zrotation Xrotation 
				JOINT rShldr
				{
					OFFSET -3.148289 0.000000 0.000000
					CHANNELS 3 Zrotation Yrotation Xrotation 
					JOINT rForeArm
					{
						OFFSET -10.266159 0.000000 0.000000
						CHANNELS 3 Yrotation Zrotation Xrotation 
						JOINT rHand
						{
							OFFSET -8.349810 0.000000 0.000000
							CHANNELS 3 Zrotation Yrotation Xrotation 
							End Site
							{
								OFFSET -4.106464 0.000000 0.000000
							}
						}
					}
				}
			}
		}
	}
	JOINT lThigh
	{
		OFFSET 5.338403 -1.642589 1.368821
		CHANNELS 3 Xrotation Zrotation Yrotation 
		JOINT lShin
		{
			OFFSET -2.053232 -20.121670 0.000000
			CHANNELS 3 Xrotation Zrotation Yrotation 
			JOINT lFoot
			{
				OFFSET 0.000000 -19.300380 -1.231939
				CHANNELS 3 Xrotation Yrotation Zrotation 
				End Site
				{
					OFFSET 0.000000 -2.463878 4.653993
				}
			}
		}
	}
	JOINT rThigh
	{
		OFFSET -5.338403 -1.642589 1.368821
		CHANNELS 3 Xrotation Zrotation Yrotation 
		JOINT rShin
		{
			OFFSET 2.053232 -20.121670 0.000000
			CHANNELS 3 Xrotation Zrotation Yrotation 
			JOINT rFoot
			{
				OFFSET 0.000000 -19.300380 -1.231939
				CHANNELS 3 Xrotation Yrotation Zrotation 
				End Site
				{
					OFFSET 0.000000 -2.463878 4.653993
				}
			}
		}
	}
}
MOTION
Frames: 16
Frame Time: 0.099947
0.000000 43.528500 0.000000 0.000000 0.000000 0.000000 0.000000 0.000000 0.000000 0.000000 0.000000 0.000000 0.000000 0.000000 0.000000 0.000000 0.000000 0.000000 0.000000 0.000000 0.000000 0.000000 0.000000 0.000000 0.000000 0.000000 0.000000 0.000000 0.000000 0.000000 0.000000 0.000000 0.000000 0.000000 0.000000 0.000000 0.000000 0.000000 0.000000 0.000000 0.000000 0.000000 0.000000 0.000000 0.000000 0.000000 0.000000 0.000000 0.000000 0.000000 0.000000 0.000000 0.000000 0.000000 0.000000 0.000000 0.000000 0.000000 0.000000 0.000000 
-2.381966 43.147030 25.745045 0.000000 0.000000 180.000000 -1.895986 -2.424786 -1.409986 -3.750159 -7.844359 -3.392638 0.515833 0.022727 0.000104 0.089204 0.344455 0.009011 -16.231182 -55.732578 -12.403301 0.165805 1.706358 -0.961103 -120.149216 6.648911 -57.799343 -26.425903 9.683892 10.469090 46.065018 39.636036 -37.197319 3.604126 28.803097 -2.161263 111.324730 -7.247139 -58.502354 4.997595 19.999834 19.998409 -8.726815 0.948017 0.680002 17.704342 0.089145 -0.401979 -10.094883 1.062732 5.613337 -7.163069 -24.680630 0.182813 9.339134 2.639514 0.055946 -5.490237 -0.613332 0.122892 
-2.138821 43.147030 25.732397 0.000000 0.000000 180.000000 -1.830469 -2.551888 -1.458945 -3.715503 -7.537700 -3.407117 1.032796 0.047909 -0.004124 0.178540 0.690606 0.009820 -15.575006 -56.082424 -12.007207 0.165805 1.706358 -0.961103 -119.919487 5.615590 -57.649433 -26.636780 9.172711 10.532211 45.884098 40.021549 -37.102737 3.183805 27.698908 -2.333986 111.461121 -6.471329 -58.204365 5.996641 19.891993 20.400326 -8.611076 1.327575 0.629167 17.704342 0.089145 -0.401979 -9.905701 1.849919 5.314937 -7.465363 -24.262196 0.211833 9.982332 2.489842 0.094790 -5.859666 -0.658951 -0.155310 
-1.895677 43.147030 25.719749 0.000000 0.000000 180.000000 -1.764833 -2.678944 -1.508058 -3.680940 -7.230950 -3.421402 1.550140 0.073146 -0.008127 0.267920 1.036877 0.011170 -14.907962 -56.429981 -11.599958 0.165805 1.706358 -0.961103 -119.686646 4.579505 -57.495098 -26.848112 8.661319 10.597204 45.701221 40.407001 -37.005974 2.769759 26.589363 -2.496555 111.593529 -5.693308 -57.908100 6.996676 19.777279 20.800907 -8.495603 1.707402 0.579069 17.704342 0.089145 -0.401979 -9.711905 2.637737 5.013145 -7.766656 -23.843325 0.238362 10.626132 2.339562 0.131989 -6.229531 -0.702801 -0.433968 
-1.652532 43.147030 25.707102 0.000000 0.000000 180.000000 -1.699077 -2.805949 -1.557323 -3.646467 -6.924115 -3.435493 2.067844 0.098437 -0.011905 0.357349 1.383260 0.013062 -14.229784 -56.775093 -11.181293 0.165805 1.706358 -0.961103 -119.450584 3.540856 -57.336243 -27.059929 8.149747 10.664074 45.516354 40.792393 -36.906994 2.361619 25.474720 -2.649248 111.721954 -4.913172 -57.613453 7.997483 19.655716 21.199951 -8.380386 2.087487 0.529705 17.704342 0.089145 -0.401979 -9.513420 3.426067 4.707864 -8.066981 -23.424053 0.262421 11.270505 2.188702 0.167532 -6.599816 -0.744873 -0.713061 
-1.409388 43.147030 25.694454 0.000000 0.000000 180.000000 -1.633201 -2.932906 -1.606744 -3.612086 -6.617203 -3.449395 2.585888 0.123777 -0.015457 0.446833 1.729748 0.015495 -13.540221 -57.117680 -10.750957 0.165805 1.706358 -0.961103 -119.211159 2.499836 -57.172787 -27.272255 7.638028 10.732821 45.329433 41.177689 -36.805725 1.959034 24.355265 -2.792325 111.846420 -4.131028 -57.320370 8.998844 19.527315 21.597261 -8.265425 2.467819 0.481075 17.704342 0.089145 -0.401979 -9.310164 4.214782 4.398991 -8.366364 -23.004402 0.284031 11.915414 2.037289 0.201407 -6.970498 -0.785161 -0.992570 
-1.166243 43.147030 25.681807 0.000000 0.000000 180.000000 -1.567203 -3.059811 -1.656318 -3.577793 -6.310214 -3.463104 3.104252 0.149164 -0.018781 0.536375 2.076334 0.018471 -12.839014 -57.457600 -10.308689 0.165805 1.706358 -0.961103 -118.968239 1.456665 -57.004604 -27.485100 7.126194 10.803452 45.140419 41.562881 -36.702137 1.561665 23.231270 -2.926030 111.966980 -3.346983 -57.028790 10.000544 19.392111 21.992651 -8.150708 2.848389 0.433176 17.704342 0.089145 -0.401979 -9.102055 5.003758 4.086424 -8.664834 -22.584402 0.303209 12.560827 1.885351 0.233604 -7.341557 -0.823657 -1.272473 
-0.923099 43.147030 25.669159 0.000000 0.000000 180.000000 -1.501085 -3.186666 -1.706048 -3.543585 -6.003153 -3.476624 3.622913 0.174594 -0.021877 0.625982 2.423009 0.021991 -12.125913 -57.794754 -9.854235 0.165805 1.706358 -0.961103 -118.721695 0.411542 -56.831600 -27.698503 6.614278 10.875971 44.949272 41.947964 -36.596191 1.169184 22.103027 -3.050593 112.083626 -2.561130 -56.738609 11.002362 19.250128 22.385914 -8.036230 3.229184 0.386007 17.704344 0.089145 -0.401979 -8.889001 5.792868 3.770055 -8.962417 -22.164076 0.319975 13.206707 1.732916 0.264111 -7.712977 -0.860357 -1.552752 
-0.679955 43.147030 25.656511 0.000000 0.000000 180.000000 -1.434844 -3.313469 -1.755932 -3.509464 -5.696028 -3.489956 4.141852 0.200065 -0.024745 0.715657 2.769767 0.026056 -11.400651 -58.129002 -9.387330 0.165805 1.706358 -0.961103 -118.471397 -0.635317 -56.653675 -27.912479 6.102311 10.950381 44.755917 42.332890 -36.487808 0.781277 20.970812 -3.166227 112.196381 -1.773571 -56.449776 12.004086 19.101404 22.776861 -7.921984 3.610195 0.339568 17.704338 0.089145 -0.401979 -8.670911 6.581978 3.449775 -9.259146 -21.743464 0.334349 13.853024 1.580012 0.292920 -8.084732 -0.895253 -1.833385 
-0.436810 43.147030 25.643864 0.000000 0.000000 180.000000 -1.368483 -3.440219 -1.805972 -3.475425 -5.388840 -3.503098 4.661048 0.225574 -0.027382 0.805405 3.116599 0.030667 -10.662973 -58.460232 -8.907713 0.165805 1.706358 -0.961103 -118.217186 -1.683696 -56.470695 -28.127045 5.590325 11.026688 44.560341 42.717686 -36.376976 0.397641 19.834915 -3.273133 112.305275 -0.984426 -56.162216 13.005505 18.945988 23.165302 -7.807963 3.991409 0.293856 17.704342 0.089145 -0.401979 -8.447693 7.370960 3.125473 -9.555044 -21.322582 0.346347 14.499743 1.426669 0.320020 -8.456806 -0.928340 -2.114353 
-0.193666 43.147030 25.631216 0.000000 0.000000 180.000000 -1.301999 -3.566917 -1.856168 -3.441470 -5.081597 -3.516053 5.180479 0.251117 -0.029790 0.895232 3.463499 0.035825 -9.912625 -58.788326 -8.415130 0.165805 1.706358 -0.961103 -117.958923 -2.733377 -56.282555 -28.342241 5.078357 11.104900 44.362427 43.102280 -36.263588 0.017982 18.695625 -3.371496 112.410309 -0.193787 -55.875847 14.006396 18.783918 23.551043 -7.694165 4.372817 0.248871 17.704342 0.089145 -0.401979 -8.219254 8.159678 2.797035 -9.850137 -20.901463 0.355989 15.146831 1.272917 0.345405 -8.829172 -0.959612 -2.395633 
0.049479 43.147030 25.618568 0.000000 0.000000 180.000000 -1.235391 -3.693560 -1.906519 -3.407593 -4.774299 -3.528820 5.700126 0.276692 -0.031967 0.985143 3.810458 0.041531 -9.149342 -59.113129 -7.909310 0.165805 1.706358 -0.961103 -117.696442 -3.784133 -56.089104 -28.558071 4.566435 11.185018 44.162182 43.486698 -36.147644 -0.357984 17.553236 -3.461489 112.511505 0.598235 -55.590599 15.006561 18.615259 23.933899 -7.580573 4.754405 0.204611 17.704342 0.089145 -0.401979 -7.985491 8.947998 2.464346 -10.144458 -20.480133 0.363291 15.794250 1.118783 0.369065 -9.201818 -0.989066 -2.677206 
0.292623 43.147030 25.605921 0.000000 0.000000 180.000000 -1.168661 -3.820150 -1.957028 -3.373797 -4.466956 -3.541403 6.219965 0.302295 -0.033912 1.075142 4.157467 0.047787 -8.372873 -59.434544 -7.390006 0.165805 1.706358 -0.961103 -117.429588 -4.835734 -55.890228 -28.774572 4.054595 11.267051 43.959522 43.870907 -36.029057 -0.730531 16.408041 -3.543274 112.608879 1.391539 -55.306400 16.005793 18.440079 24.313702 -7.467190 5.136166 0.161076 17.704342 0.089145 -0.401979 -7.746305 9.735781 2.127286 -10.438025 -20.058622 0.368270 16.441969 0.964297 0.390993 -9.574717 -1.016695 -2.959050 
0.535768 43.147030 25.593273 0.000000 0.000000 180.000000 -1.101807 -3.946683 -2.007692 -3.340078 -4.159568 -3.553798 6.739975 0.327923 -0.035626 1.165235 4.504523 0.054593 -7.582968 -59.752422 -6.856961 0.165805 1.706358 -0.961103 -117.158211 -5.887956 -55.685783 -28.991766 3.542870 11.351007 43.754395 44.254894 -35.907784 -1.099927 15.260326 -3.617001 112.702446 2.186014 -55.023193 17.003891 18.258444 24.690271 -7.354006 5.518087 0.118264 17.704342 0.089145 -0.401979 -7.501592 10.522894 1.785735 -10.730873 -19.636961 0.370943 17.089952 0.809490 0.411183 -9.947845 -1.042495 -3.241145 
0.778912 43.147030 25.580626 0.000000 0.000000 180.000000 -1.034829 -4.073160 -2.058514 -3.306435 -3.852142 -3.566011 7.260140 0.353572 -0.037107 1.255426 4.851614 0.061951 -6.779368 -60.066582 -6.309916 0.165805 1.706358 -0.961103 -116.882133 -6.940561 -55.475624 -29.209673 3.031292 11.436893 43.546726 44.638618 -35.783749 -1.466431 14.110403 -3.682806 112.792191 2.981555 -54.740871 18.000648 18.070419 25.063421 -7.241012 5.900156 0.076176 17.704342 0.089145 -0.401979 -7.251242 11.309191 1.439567 -11.023019 -19.215170 0.371327 17.738169 0.654390 0.429628 -10.321184 -1.066463 -3.523468 
1.022056 43.147030 25.567978 0.000000 0.000000 180.000000 -0.967727 -4.199581 -2.109493 -3.272866 -3.544682 -3.578039 7.780433 0.379241 -0.038356 1.345720 5.198734 0.069863 -5.961836 -60.376919 -5.748633 0.165805 1.706358 -0.961103 -116.601166 -7.993310 -55.259586 -29.428310 2.519896 11.524713 43.336460 45.022079 -35.656895 -1.830296 12.958570 -3.740818 112.878136 3.778058 -54.459389 18.995872 17.876097 25.432989 -7.128204 6.282365 0.034809 17.704344 0.089145 -0.401979 -6.995142 12.094528 1.088657 -11.314494 -18.793283 0.369438 18.386578 0.499029 0.446323 -10.694718 -1.088596 -3.806001 
